<svg xmlns="http://www.w3.org/2000/svg" version="1.1" xmlns:xlink="http://www.w3.org/1999/xlink" xmlns:svgjs="http://svgjs.dev/svgjs" width="128" height="128" viewBox="0 0 128 128"><g transform="matrix(0.8046875,0,0,0.8046875,12.221578124999994,11.997413669310717)"><svg viewBox="0 0 96 96" data-background-color="#000000" preserveAspectRatio="xMidYMid meet" height="128" width="128" xmlns="http://www.w3.org/2000/svg" xmlns:xlink="http://www.w3.org/1999/xlink"><g id="tight-bounds" transform="matrix(1,0,0,1,0.25950000000000273,0.46842997811816645)"><svg viewBox="0 0 95.481 95.06314004376367" height="95.06314004376367" width="95.481"><g><svg viewBox="0 0 95.481 95.06314004376367" height="95.06314004376367" width="95.481"><g><svg viewBox="0 0 95.481 95.06314004376367" height="95.06314004376367" width="95.481"><g id="textblocktransform"><svg viewBox="0 0 95.481 95.06314004376367" height="95.06314004376367" width="95.481" id="textblock"><g><svg viewBox="0 0 95.481 95.06314004376367" height="95.06314004376367" width="95.481"><g><svg viewBox="0 0 95.481 95.06314004376367" height="95.06314004376367" width="95.481"><g><svg xmlns:x="http://ns.adobe.com/Extensibility/1.0/" xmlns:i="http://ns.adobe.com/AdobeIllustrator/10.0/" xmlns:graph="http://ns.adobe.com/Graphs/1.0/" xmlns="http://www.w3.org/2000/svg" xmlns:xlink="http://www.w3.org/1999/xlink" version="1.1" x="0" y="0" viewBox="4.3 4.5 91.4 91" enable-background="new 0 0 100 100" xml:space="preserve" height="95.06314004376367" width="95.481" class="icon-icon-0" data-fill-palette-color="accent" id="icon-0"></svg><g></g></g></svg></g></svg></g></svg></g></svg></g><g></g></svg></g><defs></defs><mask id="9597c958-846b-4f43-b824-42874d46dd3a"><g id="SvgjsG2228"><svg viewBox="0 0 95.481 95.06314004376367" height="95.06314004376367" width="95.481"><g><svg viewBox="0 0 95.481 95.06314004376367" height="95.06314004376367" width="95.481"><g><svg viewBox="0 0 95.481 95.06314004376367" height="95.06314004376367" width="95.481"><g id="SvgjsG2227"><svg viewBox="0 0 95.481 95.06314004376367" height="95.06314004376367" width="95.481" id="SvgjsSvg2226"><g><svg viewBox="0 0 95.481 95.06314004376367" height="95.06314004376367" width="95.481"><g><svg viewBox="0 0 95.481 95.06314004376367" height="95.06314004376367" width="95.481"><g><svg xmlns:x="http://ns.adobe.com/Extensibility/1.0/" xmlns:i="http://ns.adobe.com/AdobeIllustrator/10.0/" xmlns:graph="http://ns.adobe.com/Graphs/1.0/" xmlns="http://www.w3.org/2000/svg" xmlns:xlink="http://www.w3.org/1999/xlink" version="1.1" x="0" y="0" viewBox="4.3 4.5 91.4 91" enable-background="new 0 0 100 100" xml:space="preserve" height="95.06314004376367" width="95.481" class="icon-icon-0" data-fill-palette-color="accent" id="SvgjsSvg2225"><path d="M95.7 44.3H83.2C80.8 30.3 69.8 19.4 55.9 17V4.5C76.7 7.1 93.1 23.5 95.7 44.3M4.3 50C4.3 73.4 21.8 92.7 44.5 95.5V83C28.7 80.3 16.7 66.5 16.7 50 16.7 33.4 28.7 19.7 44.5 17V4.5C21.8 7.3 4.3 26.6 4.3 50M83.2 55.7C80.8 69.7 69.8 80.6 55.9 83V95.5C76.7 92.9 93.1 76.5 95.7 55.7zM50.2 26.2C63.3 26.2 74 36.8 74 50S63.3 73.8 50.2 73.8 26.3 63.2 26.3 50 37 26.2 50.2 26.2M50.2 33.7H49.3C48.3 33.7 48.2 33.9 48.2 34.9V36.2C48.2 37.5 48.2 37.5 47 37.9 44 39 42.2 41 42 44.2 41.8 47.1 43.3 49 45.7 50.4 47.1 51.3 48.8 51.8 50.3 52.5 50.9 52.8 51.5 53.1 52 53.5 53.5 54.7 53.2 56.7 51.5 57.5 50.6 57.9 49.6 58 48.6 57.9 47 57.7 45.5 57.3 44.1 56.6 43.3 56.2 43 56.3 42.7 57.2 42.5 58 42.2 58.8 42 59.5 41.7 60.6 41.8 60.8 42.8 61.3 44.1 61.9 45.4 62.2 46.8 62.5 47.9 62.7 47.9 62.7 47.9 63.9V65.4C47.9 66 48.2 66.4 48.9 66.4H51.2C51.8 66.4 52.1 66 52.1 65.4V63.3C52.1 62.6 52.4 62.2 53.1 62 54.7 61.6 56 60.7 57.1 59.5 60 56 58.9 50.9 54.8 48.6 53.5 47.9 52.2 47.4 50.8 46.8 50 46.5 49.3 46.1 48.6 45.6 47.3 44.6 47.5 42.9 49.1 42.2 49.5 42 50 42 50.4 41.9 52.2 41.8 53.8 42.1 55.4 42.9 56.2 43.3 56.5 43.2 56.7 42.3 57 41.4 57.2 40.5 57.5 39.7 57.7 39.1 57.5 38.7 56.9 38.5 55.9 38 54.8 37.7 53.7 37.6 52.3 37.4 52.3 37.4 52.3 35.9 52.2 33.7 52.2 33.7 50.2 33.7" fill="white"></path></svg><g></g></g></svg></g></svg></g></svg></g></svg></g><g></g></svg></g><defs><mask></mask></defs></svg><rect width="95.481" height="95.06314004376367" fill="black" stroke="none" visibility="hidden"></rect></g></mask><linearGradient x1="0.054" x2="0.941" y1="0.5" y2="0.5" id="cc49ad85-0731-4869-b06b-cbf797e2f035"><stop stop-color="#864d25" offset="0"></stop><stop stop-color="#f1c4b3" offset="0.498"></stop><stop stop-color="#864d25" offset="1"></stop></linearGradient><rect width="95.481" height="95.06314004376367" fill="url(#cc49ad85-0731-4869-b06b-cbf797e2f035)" mask="url(#9597c958-846b-4f43-b824-42874d46dd3a)" data-fill-palette-color="accent"></rect></svg><rect width="95.481" height="95.06314004376367" fill="none" stroke="none" visibility="hidden"></rect></g></svg></g></svg>