<svg xmlns="http://www.w3.org/2000/svg" version="1.1" xmlns:xlink="http://www.w3.org/1999/xlink" xmlns:svgjs="http://svgjs.dev/svgjs" width="2000" height="421" viewBox="0 0 2000 421"><g transform="matrix(1,0,0,1,-0.11552496035267268,-0.21209469696961492)"><svg viewBox="0 0 261 55" data-background-color="#000000" preserveAspectRatio="xMidYMid meet" height="421" width="2000" xmlns="http://www.w3.org/2000/svg" xmlns:xlink="http://www.w3.org/1999/xlink"><g id="tight-bounds" transform="matrix(1,0,0,1,0.015076007326030094,0.027708333333322344)"><svg viewBox="0 0 260.96984798534794 54.944583333333334" height="54.944583333333334" width="260.96984798534794"><g><svg viewBox="0 0 260.96984798534794 54.944583333333334" height="54.944583333333334" width="260.96984798534794"><g><svg viewBox="0 0 260.96984798534794 54.944583333333334" height="54.944583333333334" width="260.96984798534794"><g id="textblocktransform"><svg viewBox="0 0 260.96984798534794 54.944583333333334" height="54.944583333333334" width="260.96984798534794" id="textblock"><g><svg viewBox="0 0 260.96984798534794 54.944583333333334" height="54.944583333333334" width="260.96984798534794"><g><svg><g></g><g></g></svg></g><g><svg><g></g><g><svg></svg></g></svg></g><g id="text-0"><svg viewBox="0 0 260.96984798534794 54.944583333333334" height="54.944583333333334" width="260.96984798534794"><g><svg xmlns:x="http://ns.adobe.com/Extensibility/1.0/" xmlns:i="http://ns.adobe.com/AdobeIllustrator/10.0/" xmlns:graph="http://ns.adobe.com/Graphs/1.0/" xmlns="http://www.w3.org/2000/svg" xmlns:xlink="http://www.w3.org/1999/xlink" version="1.1" x="0" y="0" viewBox="4.3 4.5 91.4 91" enable-background="new 0 0 100 100" xml:space="preserve" height="54.944583333333334" width="55.186097985347985" class="icon-dxe-0" data-fill-palette-color="accent" id="dxe-0"></svg><g></g></g><g transform="matrix(1,0,0,1,68.15818131868132,0)"><svg width="192.81166666666664" viewBox="2.08 -33.33 119.16 33.959999999999994" height="54.944583333333334" data-palette-color="url(#39095695-80a0-4f37-84a8-7461fee2f6da)"></svg></g></svg></g></svg></g></svg></g></svg></g><g></g></svg></g><defs></defs><mask id="9761f24b-706c-4d44-a2b8-8c0b02501d28"><g id="SvgjsG1004"><svg viewBox="0 0 260.96984798534794 54.944583333333334" height="54.944583333333334" width="260.96984798534794"><g><svg viewBox="0 0 260.96984798534794 54.944583333333334" height="54.944583333333334" width="260.96984798534794"><g><svg viewBox="0 0 260.96984798534794 54.944583333333334" height="54.944583333333334" width="260.96984798534794"><g id="SvgjsG1003"><svg viewBox="0 0 260.96984798534794 54.944583333333334" height="54.944583333333334" width="260.96984798534794" id="SvgjsSvg1002"><g><svg viewBox="0 0 260.96984798534794 54.944583333333334" height="54.944583333333334" width="260.96984798534794"><g><svg><g></g><g></g></svg></g><g><svg><g></g><g><svg></svg></g></svg></g><g id="SvgjsG1001"><svg viewBox="0 0 260.96984798534794 54.944583333333334" height="54.944583333333334" width="260.96984798534794"><g><svg xmlns:x="http://ns.adobe.com/Extensibility/1.0/" xmlns:i="http://ns.adobe.com/AdobeIllustrator/10.0/" xmlns:graph="http://ns.adobe.com/Graphs/1.0/" xmlns="http://www.w3.org/2000/svg" xmlns:xlink="http://www.w3.org/1999/xlink" version="1.1" x="0" y="0" viewBox="4.3 4.5 91.4 91" enable-background="new 0 0 100 100" xml:space="preserve" height="54.944583333333334" width="55.186097985347985" class="icon-dxe-0" data-fill-palette-color="accent" id="SvgjsSvg1000"><path d="M95.7 44.3H83.2C80.8 30.3 69.8 19.4 55.9 17V4.5C76.7 7.1 93.1 23.5 95.7 44.3M4.3 50C4.3 73.4 21.8 92.7 44.5 95.5V83C28.7 80.3 16.7 66.5 16.7 50 16.7 33.4 28.7 19.7 44.5 17V4.5C21.8 7.3 4.3 26.6 4.3 50M83.2 55.7C80.8 69.7 69.8 80.6 55.9 83V95.5C76.7 92.9 93.1 76.5 95.7 55.7zM50.2 26.2C63.3 26.2 74 36.8 74 50S63.3 73.8 50.2 73.8 26.3 63.2 26.3 50 37 26.2 50.2 26.2M50.2 33.7H49.3C48.3 33.7 48.2 33.9 48.2 34.9V36.2C48.2 37.5 48.2 37.5 47 37.9 44 39 42.2 41 42 44.2 41.8 47.1 43.3 49 45.7 50.4 47.1 51.3 48.8 51.8 50.3 52.5 50.9 52.8 51.5 53.1 52 53.5 53.5 54.7 53.2 56.7 51.5 57.5 50.6 57.9 49.6 58 48.6 57.9 47 57.7 45.5 57.3 44.1 56.6 43.3 56.2 43 56.3 42.7 57.2 42.5 58 42.2 58.8 42 59.5 41.7 60.6 41.8 60.8 42.8 61.3 44.1 61.9 45.4 62.2 46.8 62.5 47.9 62.7 47.9 62.7 47.9 63.9V65.4C47.9 66 48.2 66.4 48.9 66.4H51.2C51.8 66.4 52.1 66 52.1 65.4V63.3C52.1 62.6 52.4 62.2 53.1 62 54.7 61.6 56 60.7 57.1 59.5 60 56 58.9 50.9 54.8 48.6 53.5 47.9 52.2 47.4 50.8 46.8 50 46.5 49.3 46.1 48.6 45.6 47.3 44.6 47.5 42.9 49.1 42.2 49.5 42 50 42 50.4 41.9 52.2 41.8 53.8 42.1 55.4 42.9 56.2 43.3 56.5 43.2 56.7 42.3 57 41.4 57.2 40.5 57.5 39.7 57.7 39.1 57.5 38.7 56.9 38.5 55.9 38 54.8 37.7 53.7 37.6 52.3 37.4 52.3 37.4 52.3 35.9 52.2 33.7 52.2 33.7 50.2 33.7" fill="black"></path></svg><g></g></g><g transform="matrix(1,0,0,1,68.15818131868132,0)"><svg width="192.81166666666664" viewBox="2.08 -33.33 119.16 33.959999999999994" height="54.944583333333334" data-palette-color="url(#39095695-80a0-4f37-84a8-7461fee2f6da)"><path d="M18.4 0.63L18.4 0.63Q15.03 0.63 12.07-0.64 9.1-1.91 6.86-4.13 4.62-6.35 3.35-9.31 2.08-12.26 2.08-15.63L2.08-15.63Q2.08-18.99 3.35-21.94 4.62-24.9 6.86-27.12 9.1-29.34 12.07-30.61 15.03-31.88 18.4-31.88L18.4-31.88Q21.74-31.88 24.65-30.64 27.57-29.41 29.79-27.26L29.79-27.26 28.65-22.47Q27.05-25.03 24.36-26.58 21.67-28.13 18.4-28.13L18.4-28.13Q14.97-28.13 12.2-26.44 9.44-24.76 7.81-21.93 6.18-19.1 6.18-15.63L6.18-15.63Q6.18-12.19 7.81-9.34 9.44-6.49 12.2-4.81 14.97-3.13 18.4-3.13L18.4-3.13Q21.7-3.13 24.38-4.69 27.05-6.25 28.65-8.78L28.65-8.78 29.79-3.99Q27.57-1.88 24.65-0.63 21.74 0.63 18.4 0.63ZM38.33 0L34.58 0 34.58-20.83 38.05-20.83 38.05-17.01Q39.16-18.85 41-19.95 42.84-21.04 45.38-21.04L45.38-21.04 46.32-17.29Q45.66-17.5 44.79-17.5L44.79-17.5Q41.87-17.5 40.1-15.64 38.33-13.78 38.33-10.35L38.33-10.35 38.33 0ZM58.15 0.42L58.15 0.42Q55.97 0.42 54.06-0.68 52.15-1.77 50.97-3.85 49.79-5.94 49.79-8.85L49.79-8.85 49.79-20.83 53.54-20.83 53.54-9.38Q53.54-6.91 55.01-5.02 56.49-3.13 59.16-3.13L59.16-3.13Q61.35-3.13 63.07-4.7 64.79-6.28 64.79-9.27L64.79-9.27 64.79-20.83 68.54-20.83 68.54 0 65.06 0 65.06-3.37Q63.92-1.53 62.1-0.56 60.27 0.42 58.15 0.42ZM84.12 0.28L84.12 0.28Q81.28 0.28 78.92-1.16 76.56-2.6 75.15-5.03 73.74-7.47 73.74-10.42L73.74-10.42Q73.74-13.37 75.15-15.8 76.56-18.23 78.92-19.67 81.28-21.11 84.12-21.11L84.12-21.11Q86.17-21.11 87.98-20.38 89.78-19.65 91.17-18.37L91.17-18.37 91.17-33.33 94.92-33.33 94.92 0 91.45 0 91.45-2.74Q90.06-1.35 88.17-0.54 86.28 0.28 84.12 0.28ZM84.61-3.13L84.61-3.13Q86.59-3.13 88.2-4.11 89.82-5.1 90.77-6.75 91.73-8.4 91.73-10.42L91.73-10.42Q91.73-12.43 90.77-14.08 89.82-15.73 88.2-16.72 86.59-17.71 84.61-17.71L84.61-17.71Q82.63-17.71 81.02-16.72 79.4-15.73 78.45-14.08 77.49-12.43 77.49-10.42L77.49-10.42Q77.49-8.4 78.45-6.75 79.4-5.1 81.02-4.11 82.63-3.13 84.61-3.13ZM111.52 0.42L111.52 0.42Q108.25 0.42 105.67-1.04 103.08-2.5 101.6-5.02 100.13-7.53 100.13-10.63L100.13-10.63Q100.13-13.58 101.55-15.99 102.98-18.4 105.39-19.83 107.8-21.25 110.72-21.25L110.72-21.25Q113.6-21.25 116-19.88 118.39-18.51 119.82-16.18 121.24-13.85 121.24-10.9L121.24-10.9 121.24-9.38 107.63-9.38Q106.73-9.38 105.79-9.44 104.85-9.51 103.95-9.65L103.95-9.65Q104.33-6.88 106.47-5 108.6-3.13 111.55-3.13L111.55-3.13Q113.53-3.13 115.23-4.03 116.93-4.93 117.98-6.42L117.98-6.42 119.02-2.15Q117.52-0.94 115.6-0.26 113.67 0.42 111.52 0.42ZM103.84-12.19L103.84-12.19Q105.72-12.5 107.63-12.5L107.63-12.5 114.54-12.5Q115.3-12.5 116.05-12.45 116.8-12.4 117.56-12.33L117.56-12.33Q117.07-14.76 115.13-16.34 113.18-17.92 110.72-17.92L110.72-17.92Q108.18-17.92 106.27-16.23 104.37-14.55 103.84-12.19Z" opacity="1" transform="matrix(1,0,0,1,0,0)" fill="white" class="wordmark-text-0"></path></svg></g></svg></g></svg></g></svg></g></svg></g><g></g></svg></g><defs><mask></mask></defs></svg><rect width="260.96984798534794" height="54.944583333333334" fill="black" stroke="none" visibility="hidden"></rect></g></mask><linearGradient x1="0.054" x2="0.941" y1="0.5" y2="0.5" id="39095695-80a0-4f37-84a8-7461fee2f6da"><stop stop-color="#864d25" offset="0"></stop><stop stop-color="#f1c4b3" offset="0.498"></stop><stop stop-color="#864d25" offset="1"></stop></linearGradient><rect width="260.96984798534794" height="54.944583333333334" fill="url(#39095695-80a0-4f37-84a8-7461fee2f6da)" mask="url(#9761f24b-706c-4d44-a2b8-8c0b02501d28)" data-fill-palette-color="primary"></rect><mask id="dab1e035-b494-4811-ac30-4bf412887232"><g id="SvgjsG1014"><svg viewBox="0 0 260.96984798534794 54.944583333333334" height="54.944583333333334" width="260.96984798534794"><g><svg viewBox="0 0 260.96984798534794 54.944583333333334" height="54.944583333333334" width="260.96984798534794"><g><svg viewBox="0 0 260.96984798534794 54.944583333333334" height="54.944583333333334" width="260.96984798534794"><g id="SvgjsG1013"><svg viewBox="0 0 260.96984798534794 54.944583333333334" height="54.944583333333334" width="260.96984798534794" id="SvgjsSvg1012"><g><svg viewBox="0 0 260.96984798534794 54.944583333333334" height="54.944583333333334" width="260.96984798534794"><g><svg><g></g><g></g></svg></g><g><svg><g></g><g><svg></svg></g></svg></g><g id="SvgjsG1011"><svg viewBox="0 0 260.96984798534794 54.944583333333334" height="54.944583333333334" width="260.96984798534794"><g><svg xmlns:x="http://ns.adobe.com/Extensibility/1.0/" xmlns:i="http://ns.adobe.com/AdobeIllustrator/10.0/" xmlns:graph="http://ns.adobe.com/Graphs/1.0/" xmlns="http://www.w3.org/2000/svg" xmlns:xlink="http://www.w3.org/1999/xlink" version="1.1" x="0" y="0" viewBox="4.3 4.5 91.4 91" enable-background="new 0 0 100 100" xml:space="preserve" height="54.944583333333334" width="55.186097985347985" class="icon-dxe-0" data-fill-palette-color="accent" id="SvgjsSvg1010"><path d="M95.7 44.3H83.2C80.8 30.3 69.8 19.4 55.9 17V4.5C76.7 7.1 93.1 23.5 95.7 44.3M4.3 50C4.3 73.4 21.8 92.7 44.5 95.5V83C28.7 80.3 16.7 66.5 16.7 50 16.7 33.4 28.7 19.7 44.5 17V4.5C21.8 7.3 4.3 26.6 4.3 50M83.2 55.7C80.8 69.7 69.8 80.6 55.9 83V95.5C76.7 92.9 93.1 76.5 95.7 55.7zM50.2 26.2C63.3 26.2 74 36.8 74 50S63.3 73.8 50.2 73.8 26.3 63.2 26.3 50 37 26.2 50.2 26.2M50.2 33.7H49.3C48.3 33.7 48.2 33.9 48.2 34.9V36.2C48.2 37.5 48.2 37.5 47 37.9 44 39 42.2 41 42 44.2 41.8 47.1 43.3 49 45.7 50.4 47.1 51.3 48.8 51.8 50.3 52.5 50.9 52.8 51.5 53.1 52 53.5 53.5 54.7 53.2 56.7 51.5 57.5 50.6 57.9 49.6 58 48.6 57.9 47 57.7 45.5 57.3 44.1 56.6 43.3 56.2 43 56.3 42.7 57.2 42.5 58 42.2 58.8 42 59.5 41.7 60.6 41.8 60.8 42.8 61.3 44.1 61.9 45.4 62.2 46.8 62.5 47.9 62.7 47.9 62.7 47.9 63.9V65.4C47.9 66 48.2 66.4 48.9 66.4H51.2C51.8 66.4 52.1 66 52.1 65.4V63.3C52.1 62.6 52.4 62.2 53.1 62 54.7 61.6 56 60.7 57.1 59.5 60 56 58.9 50.9 54.8 48.6 53.5 47.9 52.2 47.4 50.8 46.8 50 46.5 49.3 46.1 48.6 45.6 47.3 44.6 47.5 42.9 49.1 42.2 49.5 42 50 42 50.4 41.9 52.2 41.8 53.8 42.1 55.4 42.9 56.2 43.3 56.5 43.2 56.7 42.3 57 41.4 57.2 40.5 57.5 39.7 57.7 39.1 57.5 38.7 56.9 38.5 55.9 38 54.8 37.7 53.7 37.6 52.3 37.4 52.3 37.4 52.3 35.9 52.2 33.7 52.2 33.7 50.2 33.7" fill="white"></path></svg><g></g></g><g transform="matrix(1,0,0,1,68.15818131868132,0)"><svg width="192.81166666666664" viewBox="2.08 -33.33 119.16 33.959999999999994" height="54.944583333333334" data-palette-color="url(#39095695-80a0-4f37-84a8-7461fee2f6da)"></svg></g></svg></g></svg></g></svg></g></svg></g><g></g></svg></g><defs><mask></mask></defs><mask><g id="SvgjsG1009"><svg viewBox="0 0 260.96984798534794 54.944583333333334" height="54.944583333333334" width="260.96984798534794"><g><svg viewBox="0 0 260.96984798534794 54.944583333333334" height="54.944583333333334" width="260.96984798534794"><g><svg viewBox="0 0 260.96984798534794 54.944583333333334" height="54.944583333333334" width="260.96984798534794"><g id="SvgjsG1008"><svg viewBox="0 0 260.96984798534794 54.944583333333334" height="54.944583333333334" width="260.96984798534794" id="SvgjsSvg1007"><g><svg viewBox="0 0 260.96984798534794 54.944583333333334" height="54.944583333333334" width="260.96984798534794"><g><svg><g></g><g></g></svg></g><g><svg><g></g><g><svg></svg></g></svg></g><g id="SvgjsG1006"><svg viewBox="0 0 260.96984798534794 54.944583333333334" height="54.944583333333334" width="260.96984798534794"><g><svg xmlns:x="http://ns.adobe.com/Extensibility/1.0/" xmlns:i="http://ns.adobe.com/AdobeIllustrator/10.0/" xmlns:graph="http://ns.adobe.com/Graphs/1.0/" xmlns="http://www.w3.org/2000/svg" xmlns:xlink="http://www.w3.org/1999/xlink" version="1.1" x="0" y="0" viewBox="4.3 4.5 91.4 91" enable-background="new 0 0 100 100" xml:space="preserve" height="54.944583333333334" width="55.186097985347985" class="icon-dxe-0" data-fill-palette-color="accent" id="SvgjsSvg1005"><path d="M95.7 44.3H83.2C80.8 30.3 69.8 19.4 55.9 17V4.5C76.7 7.1 93.1 23.5 95.7 44.3M4.3 50C4.3 73.4 21.8 92.7 44.5 95.5V83C28.7 80.3 16.7 66.5 16.7 50 16.7 33.4 28.7 19.7 44.5 17V4.5C21.8 7.3 4.3 26.6 4.3 50M83.2 55.7C80.8 69.7 69.8 80.6 55.9 83V95.5C76.7 92.9 93.1 76.5 95.7 55.7zM50.2 26.2C63.3 26.2 74 36.8 74 50S63.3 73.8 50.2 73.8 26.3 63.2 26.3 50 37 26.2 50.2 26.2M50.2 33.7H49.3C48.3 33.7 48.2 33.9 48.2 34.9V36.2C48.2 37.5 48.2 37.5 47 37.9 44 39 42.2 41 42 44.2 41.8 47.1 43.3 49 45.7 50.4 47.1 51.3 48.8 51.8 50.3 52.5 50.9 52.8 51.5 53.1 52 53.5 53.5 54.7 53.2 56.7 51.5 57.5 50.6 57.9 49.6 58 48.6 57.9 47 57.7 45.5 57.3 44.1 56.6 43.3 56.2 43 56.3 42.7 57.2 42.5 58 42.2 58.8 42 59.5 41.7 60.6 41.8 60.8 42.8 61.3 44.1 61.9 45.4 62.2 46.8 62.5 47.9 62.7 47.9 62.7 47.9 63.9V65.4C47.9 66 48.2 66.4 48.9 66.4H51.2C51.8 66.4 52.1 66 52.1 65.4V63.3C52.1 62.6 52.4 62.2 53.1 62 54.7 61.6 56 60.7 57.1 59.5 60 56 58.9 50.9 54.8 48.6 53.5 47.9 52.2 47.4 50.8 46.8 50 46.5 49.3 46.1 48.6 45.6 47.3 44.6 47.5 42.9 49.1 42.2 49.5 42 50 42 50.4 41.9 52.2 41.8 53.8 42.1 55.4 42.9 56.2 43.3 56.5 43.2 56.7 42.3 57 41.4 57.2 40.5 57.5 39.7 57.7 39.1 57.5 38.7 56.9 38.5 55.9 38 54.8 37.7 53.7 37.6 52.3 37.4 52.3 37.4 52.3 35.9 52.2 33.7 52.2 33.7 50.2 33.7" fill="black"></path></svg><g></g></g><g transform="matrix(1,0,0,1,68.15818131868132,0)"><svg width="192.81166666666664" viewBox="2.08 -33.33 119.16 33.959999999999994" height="54.944583333333334" data-palette-color="url(#39095695-80a0-4f37-84a8-7461fee2f6da)"><path d="M18.4 0.63L18.4 0.63Q15.03 0.63 12.07-0.64 9.1-1.91 6.86-4.13 4.62-6.35 3.35-9.31 2.08-12.26 2.08-15.63L2.08-15.63Q2.08-18.99 3.35-21.94 4.62-24.9 6.86-27.12 9.1-29.34 12.07-30.61 15.03-31.88 18.4-31.88L18.4-31.88Q21.74-31.88 24.65-30.64 27.57-29.41 29.79-27.26L29.79-27.26 28.65-22.47Q27.05-25.03 24.36-26.58 21.67-28.13 18.4-28.13L18.4-28.13Q14.97-28.13 12.2-26.44 9.44-24.76 7.81-21.93 6.18-19.1 6.18-15.63L6.18-15.63Q6.18-12.19 7.81-9.34 9.44-6.49 12.2-4.81 14.97-3.13 18.4-3.13L18.4-3.13Q21.7-3.13 24.38-4.69 27.05-6.25 28.65-8.78L28.65-8.78 29.79-3.99Q27.57-1.88 24.65-0.63 21.74 0.63 18.4 0.63ZM38.33 0L34.58 0 34.58-20.83 38.05-20.83 38.05-17.01Q39.16-18.85 41-19.95 42.84-21.04 45.38-21.04L45.38-21.04 46.32-17.29Q45.66-17.5 44.79-17.5L44.79-17.5Q41.87-17.5 40.1-15.64 38.33-13.78 38.33-10.35L38.33-10.35 38.33 0ZM58.15 0.42L58.15 0.42Q55.97 0.42 54.06-0.68 52.15-1.77 50.97-3.85 49.79-5.94 49.79-8.85L49.79-8.85 49.79-20.83 53.54-20.83 53.54-9.38Q53.54-6.91 55.01-5.02 56.49-3.13 59.16-3.13L59.16-3.13Q61.35-3.13 63.07-4.7 64.79-6.28 64.79-9.27L64.79-9.27 64.79-20.83 68.54-20.83 68.54 0 65.06 0 65.06-3.37Q63.92-1.53 62.1-0.56 60.27 0.42 58.15 0.42ZM84.12 0.28L84.12 0.28Q81.28 0.28 78.92-1.16 76.56-2.6 75.15-5.03 73.74-7.47 73.74-10.42L73.74-10.42Q73.74-13.37 75.15-15.8 76.56-18.23 78.92-19.67 81.28-21.11 84.12-21.11L84.12-21.11Q86.17-21.11 87.98-20.38 89.78-19.65 91.17-18.37L91.17-18.37 91.17-33.33 94.92-33.33 94.92 0 91.45 0 91.45-2.74Q90.06-1.35 88.17-0.54 86.28 0.28 84.12 0.28ZM84.61-3.13L84.61-3.13Q86.59-3.13 88.2-4.11 89.82-5.1 90.77-6.75 91.73-8.4 91.73-10.42L91.73-10.42Q91.73-12.43 90.77-14.08 89.82-15.73 88.2-16.72 86.59-17.71 84.61-17.71L84.61-17.71Q82.63-17.71 81.02-16.72 79.4-15.73 78.45-14.08 77.49-12.43 77.49-10.42L77.49-10.42Q77.49-8.4 78.45-6.75 79.4-5.1 81.02-4.11 82.63-3.13 84.61-3.13ZM111.52 0.42L111.52 0.42Q108.25 0.42 105.67-1.04 103.08-2.5 101.6-5.02 100.13-7.53 100.13-10.63L100.13-10.63Q100.13-13.58 101.55-15.99 102.98-18.4 105.39-19.83 107.8-21.25 110.72-21.25L110.72-21.25Q113.6-21.25 116-19.88 118.39-18.51 119.82-16.18 121.24-13.85 121.24-10.9L121.24-10.9 121.24-9.38 107.63-9.38Q106.73-9.38 105.79-9.44 104.85-9.51 103.95-9.65L103.95-9.65Q104.33-6.88 106.47-5 108.6-3.13 111.55-3.13L111.55-3.13Q113.53-3.13 115.23-4.03 116.93-4.93 117.98-6.42L117.98-6.42 119.02-2.15Q117.52-0.94 115.6-0.26 113.67 0.42 111.52 0.42ZM103.84-12.19L103.84-12.19Q105.72-12.5 107.63-12.5L107.63-12.5 114.54-12.5Q115.3-12.5 116.05-12.45 116.8-12.4 117.56-12.33L117.56-12.33Q117.07-14.76 115.13-16.34 113.18-17.92 110.72-17.92L110.72-17.92Q108.18-17.92 106.27-16.23 104.37-14.55 103.84-12.19Z" opacity="1" transform="matrix(1,0,0,1,0,0)" fill="black" class="wordmark-text-0"></path></svg></g></svg></g></svg></g></svg></g></svg></g><g></g></svg></g><defs><mask></mask></defs></svg><rect width="260.96984798534794" height="54.944583333333334" fill="black" stroke="none" visibility="hidden"></rect></g></mask></svg><rect width="260.96984798534794" height="54.944583333333334" fill="black" stroke="none" visibility="hidden"></rect></g></mask><linearGradient x1="0.054" x2="0.941" y1="0.5" y2="0.5" id="ac3d64da-6536-4985-b9e1-21859b2829e8"><stop stop-color="#864d25" offset="0"></stop><stop stop-color="#f1c4b3" offset="0.498"></stop><stop stop-color="#864d25" offset="1"></stop></linearGradient><rect width="260.96984798534794" height="54.944583333333334" fill="url(#ac3d64da-6536-4985-b9e1-21859b2829e8)" mask="url(#dab1e035-b494-4811-ac30-4bf412887232)" data-fill-palette-color="accent"></rect></svg><rect width="260.96984798534794" height="54.944583333333334" fill="none" stroke="none" visibility="hidden"></rect></g></svg></g></svg>